<?xml version="1.0" encoding="utf-8"?>
<!-- Generator: Adobe Illustrator 16.0.0, SVG Export Plug-In . SVG Version: 6.00 Build 0)  -->
<!DOCTYPE svg PUBLIC "-//W3C//DTD SVG 1.1//EN" "http://www.w3.org/Graphics/SVG/1.1/DTD/svg11.dtd">
<svg version="1.1" id="Capa_1" xmlns="http://www.w3.org/2000/svg" xmlns:xlink="http://www.w3.org/1999/xlink" x="0px" y="0px"
	 width="32px" height="32px" viewBox="0 0 32 32" enable-background="new 0 0 32 32" xml:space="preserve">
<path fill="#FF5757" d="M12,29.5c-0.603,0-1.5-0.399-1.5-1.5V9.244l0.75,0.433C11.783,9.984,13.108,10.5,16,10.5
	s4.217-0.516,4.75-0.823l0.75-0.433V28c0,1.101-0.897,1.5-1.5,1.5H12z"/>
<path fill="#F4B184" d="M16,10.5c-2.939,0-4.267-0.533-4.797-0.851l-0.423-0.254l0.249-0.427c0.34-0.583,1.233-2.092,2.176-3.505
	l0.19-0.286l0.335,0.075C14.464,5.417,15.228,5.5,16,5.5s1.536-0.083,2.271-0.248l0.335-0.075l0.19,0.286
	c0.946,1.42,1.837,2.924,2.176,3.505l0.249,0.426l-0.423,0.254C20.371,9.905,19.051,10.5,16,10.5z"/>
<path fill="#FF5757" d="M15.999,5.482c-0.622,0-1.241-0.05-1.84-0.149l-0.792-0.131l0.467-0.653C15.052,2.843,15.566,2.5,16,2.5
	c0.427,0,0.958,0.349,2.158,2.052l0.459,0.65l-0.785,0.131C17.237,5.432,16.621,5.482,15.999,5.482z"/>
<path fill="#3D3D3D" d="M21.87,9.5C17.58,2,16.51,2,16,2s-1.58,0-5.87,7.5L10,9.73V28c0,1.3,1.03,2,2,2h8c0.97,0,2-0.7,2-2V9.73
	L21.87,9.5z M16,3c0.34,0,1.01,0.79,1.75,1.84c-1.14,0.19-2.36,0.19-3.51,0C14.99,3.79,15.66,3,16,3z M13.62,5.74
	C14.38,5.91,15.18,6,16,6s1.62-0.09,2.38-0.26c0.84,1.26,1.67,2.64,2.16,3.48C20.19,9.43,18.98,10,16,10
	c-2.98,0-4.19-0.57-4.54-0.78C11.95,8.38,12.78,7,13.62,5.74z M21,28c0,1-1,1-1,1v-2.5c0-0.276-0.224-0.5-0.5-0.5S19,26.224,19,26.5
	V29h-1v-5.5c0-0.276-0.224-0.5-0.5-0.5S17,23.224,17,23.5V29h-5c0,0-1,0-1-1V10.11c0.213,0.123,0.538,0.272,1,0.415V18.5
	c0,0.276,0.224,0.5,0.5,0.5s0.5-0.224,0.5-0.5v-7.74c0.759,0.139,1.73,0.24,3,0.24c3,0,4.41-0.55,5-0.89V28z"/>
</svg>
