<?xml version="1.0" encoding="utf-8"?>
<!-- Generator: Adobe Illustrator 16.0.0, SVG Export Plug-In . SVG Version: 6.00 Build 0)  -->
<!DOCTYPE svg PUBLIC "-//W3C//DTD SVG 1.1//EN" "http://www.w3.org/Graphics/SVG/1.1/DTD/svg11.dtd">
<svg version="1.1" id="Capa_1" xmlns="http://www.w3.org/2000/svg" xmlns:xlink="http://www.w3.org/1999/xlink" x="0px" y="0px"
	 width="32px" height="32px" viewBox="0 0 32 32" enable-background="new 0 0 32 32" xml:space="preserve">
<path fill="#919191" d="M22.5,10c0,0.6-0.4,1.5-1.5,1.5H11c-1.1,0-1.5-0.9-1.5-1.5c0-1.5,0.47-1.9,1.28-2.09
	C11.15,7.83,11.5,7.75,11.5,6c0-2.77,2.94-3.5,4.5-3.5c1.56,0,4.5,0.73,4.5,3.5c0,1.75,0.35,1.83,0.72,1.91
	C22.03,8.1,22.5,8.5,22.5,10z"/>
<g>
	<path fill="#DCF3FF" d="M20.5,11.5v2.97l-0.56,0.07C18.26,14.76,17.11,15.89,16,17c-1.07,1.07-2.27,2.29-4.05,2.46l-0.45,0.09V11.5
		H20.5z"/>
</g>
<path fill="#949EFF" d="M20.5,14.47V20c0,3.61-1.51,5.74-2.41,7.02c-0.26,0.37-0.59,0.83-0.59,0.98c0,1.1-0.9,1.5-1.5,1.5
	s-1.5-0.4-1.5-1.5c0-0.15-0.33-0.61-0.59-0.98C13.01,25.74,11.5,23.61,11.5,20v-0.45l0.45-0.09c1.78-0.17,2.98-1.39,4.05-2.46
	c1.11-1.11,2.26-2.24,3.94-2.46L20.5,14.47z"/>
<path fill="#3D3D3D" d="M21.33,7.43c-0.061-0.02-0.15-0.04-0.18-0.05C21.15,7.35,21,7.05,21,6c0-3.16-3.27-4-5-4c-1.73,0-5,0.84-5,4
	c0,1.15-0.18,1.4-0.19,1.41c0-0.01,0-0.01-0.01-0.01c-0.02,0-0.09,0.02-0.13,0.03C9.48,7.7,9,8.45,9,10c0,0.97,0.7,2,2,2v8
	c0,3.77,1.57,5.98,2.5,7.31c0.2,0.271,0.44,0.61,0.5,0.761c0.04,1.25,1.05,1.93,2,1.93s1.96-0.68,2-1.93
	c0.06-0.15,0.3-0.49,0.5-0.761C19.43,25.98,21,23.77,21,20v-8c1.3,0,2-1.03,2-2C23,8.45,22.52,7.7,21.33,7.43z M20,20c0,5-3,7-3,8
	s-1,1-1,1s-1,0-1-1s-3-3-3-8v-0.04c1.91-0.19,3.16-1.41,4.35-2.61c1.1-1.09,2.14-2.12,3.65-2.31V20z M20,14.04
	c-1.91,0.19-3.16,1.41-4.35,2.61c-1.1,1.09-2.14,2.12-3.65,2.31V12h8V14.04z M21,11H11c-1,0-1-1-1-1c0-3,2,0,2-4c0-3,4-3,4-3
	s4,0,4,3c0,4,2,1,2,4C22,10,22,11,21,11z"/>
</svg>
