<?xml version="1.0" encoding="utf-8"?>
<!-- Generator: Adobe Illustrator 16.0.0, SVG Export Plug-In . SVG Version: 6.00 Build 0)  -->
<!DOCTYPE svg PUBLIC "-//W3C//DTD SVG 1.1//EN" "http://www.w3.org/Graphics/SVG/1.1/DTD/svg11.dtd">
<svg version="1.1" id="Capa_1" xmlns="http://www.w3.org/2000/svg" xmlns:xlink="http://www.w3.org/1999/xlink" x="0px" y="0px"
	 width="32px" height="32px" viewBox="0 0 32 32" enable-background="new 0 0 32 32" xml:space="preserve">
<path fill="#3D3D3D" d="M15.999,5.482c-0.622,0-1.241-0.05-1.84-0.149l-0.792-0.131l0.467-0.653C15.052,2.843,15.566,2.5,16,2.5
	c0.427,0,0.958,0.349,2.158,2.052l0.459,0.65l-0.785,0.131C17.237,5.432,16.621,5.482,15.999,5.482z"/>
<rect x="10.5" y="22.5" fill="#B2B2B2" width="11" height="2"/>
<path fill="#FF6E6E" d="M15,29.5c-1.557,0-4.5-0.94-4.5-4.5v-0.5h11V25c0,1.557-0.94,4.5-4.5,4.5H15z"/>
<path fill="#FFE164" d="M21.5,9.24V22.5h-11V9.24l0.75,0.44c0.53,0.3,1.86,0.82,4.75,0.82c2.89,0,4.22-0.52,4.75-0.82L21.5,9.24z"/>
<path fill="#F4B184" d="M16,10.5c-2.939,0-4.267-0.533-4.797-0.851l-0.423-0.254l0.249-0.427c0.34-0.583,1.233-2.092,2.176-3.505
	l0.19-0.286l0.335,0.075C14.464,5.417,15.228,5.5,16,5.5s1.536-0.083,2.271-0.248l0.335-0.075l0.19,0.286
	c0.946,1.42,1.837,2.924,2.176,3.505l0.249,0.426l-0.423,0.254C20.371,9.905,19.051,10.5,16,10.5z"/>
<path fill="#3D3D3D" d="M21.87,9.5C17.58,2,16.51,2,16,2s-1.58,0-5.87,7.5L10,9.73V25c0,3.96,3.27,5,5,5h2c3.96,0,5-3.27,5-5V9.73
	L21.87,9.5z M16,3c0.34,0,1.01,0.79,1.75,1.84c-1.14,0.19-2.36,0.19-3.51,0C14.99,3.79,15.66,3,16,3z M13.62,5.74
	C14.38,5.91,15.18,6,16,6s1.62-0.09,2.38-0.26c0.84,1.26,1.67,2.64,2.16,3.48C20.19,9.43,18.98,10,16,10
	c-2.98,0-4.19-0.57-4.54-0.78C11.95,8.38,12.78,7,13.62,5.74z M17,29h-2c0,0-4,0-4-4h10C21,25,21,29,17,29z M21,24H11v-1h10V24z
	 M21,22h-1v-1.5c0-0.28-0.22-0.5-0.5-0.5S19,20.22,19,20.5V22h-1v-3.5c0-0.279-0.22-0.5-0.5-0.5S17,18.221,17,18.5V22h-6V10.11
	c0.21,0.12,0.54,0.27,1,0.41v5.98c0,0.28,0.22,0.5,0.5,0.5s0.5-0.22,0.5-0.5v-5.74C13.76,10.9,14.73,11,16,11c3,0,4.41-0.55,5-0.89
	V22z"/>
</svg>
