<?xml version="1.0" encoding="utf-8"?>
<!-- Generator: Adobe Illustrator 16.0.0, SVG Export Plug-In . SVG Version: 6.00 Build 0)  -->
<!DOCTYPE svg PUBLIC "-//W3C//DTD SVG 1.1//EN" "http://www.w3.org/Graphics/SVG/1.1/DTD/svg11.dtd">
<svg version="1.1" id="Capa_1" xmlns="http://www.w3.org/2000/svg" xmlns:xlink="http://www.w3.org/1999/xlink" x="0px" y="0px"
	 width="32px" height="32px" viewBox="0 0 32 32" enable-background="new 0 0 32 32" xml:space="preserve">
<g>
	<path fill="#DCF3FF" d="M24.5,26.96c0,0.9-0.52,2.54-2.5,2.54H10c-1.98,0-2.5-1.64-2.5-2.5l1-12.04c0-0.82,0.52-2.46,2.5-2.46h10
		c1.98,0,2.5,1.64,2.5,2.5L24.5,26.96z"/>
</g>
<path fill="#FF5757" d="M21.5,11c0,0.82-0.5,1.25-1,1.42v0.08h-9v-0.07c-0.36-0.11-0.64-0.35-0.82-0.7
	c-0.17-0.35-0.18-0.67-0.18-0.73c0-1.1,0.9-1.5,1.5-1.5h0.62l2-7h2.76l2,7H20c0.6,0,1.07,0.27,1.32,0.77
	C21.49,10.62,21.5,10.94,21.5,11z"/>
<g>
	<path fill="#3D3D3D" d="M24.996,26.917L24,14.954c-0.019-1.063-0.647-2.548-2.286-2.884C21.893,11.778,22,11.42,22,11
		c0-0.112-0.016-0.511-0.219-0.933C21.424,9.379,20.78,9,20,9h-0.246l-1.792-6.275L17.754,2H17h-2h-0.754l-0.207,0.725L12.246,9H12
		c-0.97,0-2,0.701-2,2c0,0.112,0.016,0.511,0.219,0.933c0.024,0.046,0.049,0.091,0.076,0.135C8.649,12.4,8.018,13.889,8,14.954
		L7.003,26.917L7,26.958V27c0,1.206,0.799,3,3,3h12c2.201,0,3-1.794,3-3v-0.042L24.996,26.917z M15,3h2l1.714,6h-5.428L15,3z M12,10
		h1h6h1c0.5,0,0.75,0.25,0.88,0.5C21,10.75,21,11,21,11c0,1-1,1-1,1h-8c-0.5,0-0.75-0.25-0.88-0.5C11,11.25,11,11,11,11
		C11,10,12,10,12,10z M22,29H10c-2,0-2-2-2-2l1-12c0,0,0-2,2-2c0,0,9.5,0,10,0c2,0,2,2,2,2l1,12C24,27,24,29,22,29z"/>
</g>
</svg>
