<?xml version="1.0" encoding="utf-8"?>
<!-- Generator: Adobe Illustrator 16.0.0, SVG Export Plug-In . SVG Version: 6.00 Build 0)  -->
<!DOCTYPE svg PUBLIC "-//W3C//DTD SVG 1.1//EN" "http://www.w3.org/Graphics/SVG/1.1/DTD/svg11.dtd">
<svg version="1.1" id="Capa_1" xmlns="http://www.w3.org/2000/svg" xmlns:xlink="http://www.w3.org/1999/xlink" x="0px" y="0px"
	 width="32px" height="32px" viewBox="0 0 32 32" enable-background="new 0 0 32 32" xml:space="preserve">
<path fill="#78FFFB" d="M17.5,4v2.5h-3V3c0-0.18,0.09-0.33,0.23-0.43C14.81,2.53,14.91,2.5,15,2.5c0.07,0,0.16,0.02,0.23,0.06l2,1
	C17.4,3.64,17.5,3.81,17.5,4z"/>
<path fill="#919191" d="M21.5,12v0.5h-11V12c0-0.09,0.03-0.19,0.08-0.27l1.92-2.88V7c0-0.28,0.22-0.5,0.5-0.5h6
	c0.28,0,0.5,0.22,0.5,0.5v1.85l1.91,2.88C21.47,11.81,21.5,11.91,21.5,12z"/>
<path fill="#919191" d="M21.5,26.5V28c0,0.6-0.4,1.5-1.5,1.5h-8c-0.6,0-1.5-0.4-1.5-1.5v-1.5H21.5z"/>
<rect x="10.5" y="12.5" fill="#DCF3FF" width="11" height="14"/>
<path fill="#3D3D3D" d="M21.83,11.45L20,8.7V7c0-0.55-0.45-1-1-1h-1V4c0-0.38-0.21-0.73-0.55-0.89l-2-1C15.31,2.04,15.15,2,15,2
	c-0.18,0-0.37,0.05-0.53,0.15C14.18,2.33,14,2.65,14,3v3h-1c-0.55,0-1,0.45-1,1v1.7l-1.83,2.75C10.06,11.61,10,11.81,10,12v16
	c0,1.3,1.03,2,2,2h8c1.3,0,2-1.03,2-2V12C22,11.81,21.94,11.61,21.83,11.45z M15,3l2,1v2h-2V3z M21,28c0,0,0,1-1,1h-8c0,0-1,0-1-1
	v-1h10V28z M21,26H11V13h10V26z M11,12l2-3V7h6v2l2,3H11z"/>
</svg>
