<?xml version="1.0" encoding="utf-8"?>
<!-- Generator: Adobe Illustrator 16.0.0, SVG Export Plug-In . SVG Version: 6.00 Build 0)  -->
<!DOCTYPE svg PUBLIC "-//W3C//DTD SVG 1.1//EN" "http://www.w3.org/Graphics/SVG/1.1/DTD/svg11.dtd">
<svg version="1.1" id="Capa_1" xmlns="http://www.w3.org/2000/svg" xmlns:xlink="http://www.w3.org/1999/xlink" x="0px" y="0px"
	 width="32px" height="32px" viewBox="0 0 32 32" enable-background="new 0 0 32 32" xml:space="preserve">
<path fill="#FF5757" d="M5.5,7.5V4c0-0.603,0.399-1.5,1.5-1.5h18c0.603,0,1.5,0.399,1.5,1.5v3.5H5.5z"/>
<path fill="#DCF3FF" d="M18.5,14.5c-1.532,0-2.28-0.512-3.003-1.007C14.752,13.002,13.989,12.5,12.5,12.5
	c-1.488,0-2.215,0.242-2.986,0.499c-0.663,0.218-1.329,0.438-2.491,0.491L6.5,13.514V7.5h19v5l-0.479,0.02
	c-1.806,0.075-2.707,0.587-3.579,1.083C20.652,14.063,19.905,14.5,18.5,14.5z"/>
<path fill="#FF5757" d="M9,29.5c-0.865,0-2.5-0.522-2.5-2.5V13.51l0.48-0.019c1.179-0.047,1.824-0.262,2.506-0.489
	C10.25,12.75,11.009,12.5,12.5,12.5c1.532,0,2.28,0.512,3.003,1.007c0.745,0.491,1.508,0.993,2.997,0.993
	c1.381,0,2.127-0.427,2.916-0.879c0.83-0.481,1.744-1.012,3.56-1.1l0.524-0.025V27c0,1.978-1.636,2.5-2.5,2.5H9z"/>
<path fill="#3D3D3D" d="M25,2H7C5.7,2,5,3.03,5,4v4h1v19c0,2.2,1.79,3,3,3h14c1.21,0,3-0.8,3-3V8h1V4C27,2.7,25.97,2,25,2z M25,27
	c0,2-2,2-2,2H9c0,0-2,0-2-2V13.99c1.26-0.05,1.97-0.29,2.66-0.52C10.39,13.23,11.08,13,12.5,13c1.35,0,1.99,0.42,2.72,0.92
	c0.76,0.5,1.63,1.08,3.28,1.08c1.53,0,2.37-0.49,3.19-0.96c0.81-0.47,1.649-0.94,3.31-1.02V27z M25,12.02
	c-1.93,0.08-2.93,0.65-3.81,1.15C20.42,13.62,19.76,14,18.5,14c-1.35,0-1.99-0.42-2.72-0.92C15.02,12.58,14.15,12,12.5,12
	c-1.58,0-2.38,0.27-3.16,0.53C8.7,12.74,8.09,12.94,7,12.99V8h18V12.02z M26,7H6V4c0,0,0-1,1-1h18c0,0,1,0,1,1V7z"/>
</svg>
