<?xml version="1.0" encoding="utf-8"?>
<!-- Generator: Adobe Illustrator 16.0.0, SVG Export Plug-In . SVG Version: 6.00 Build 0)  -->
<!DOCTYPE svg PUBLIC "-//W3C//DTD SVG 1.1//EN" "http://www.w3.org/Graphics/SVG/1.1/DTD/svg11.dtd">
<svg version="1.1" id="Capa_1" xmlns="http://www.w3.org/2000/svg" xmlns:xlink="http://www.w3.org/1999/xlink" x="0px" y="0px"
	 width="32px" height="32px" viewBox="0 0 32 32" enable-background="new 0 0 32 32" xml:space="preserve">
<path fill="#B2B2B2" d="M25.79,22.32c0.38,0.97,0.71,1.8,0.71,2.68c0,4.45-4.32,4.5-4.5,4.5H10c-0.18,0-4.5-0.05-4.5-4.5
	c0-0.88,0.33-1.71,0.71-2.68C6.78,20.83,7.5,18.97,7.5,16c0-2.97-0.72-4.82-1.29-6.31C5.83,8.71,5.5,7.88,5.5,7
	c0-4.45,4.32-4.5,4.5-4.5h12c0.18,0,4.5,0.05,4.5,4.5c0,0.88-0.33,1.71-0.71,2.68c-0.57,1.5-1.29,3.35-1.29,6.32
	C24.5,18.97,25.22,20.83,25.79,22.32z"/>
<path opacity="0.3" fill-rule="evenodd" clip-rule="evenodd" fill="#FFFFFF" d="M25.79,22.32c0.38,0.97,0.71,1.8,0.71,2.68
	c0,4.45-4.32,4.5-4.5,4.5h-6v-27h6c0.18,0,4.5,0.05,4.5,4.5c0,0.88-0.33,1.71-0.71,2.68c-0.57,1.5-1.29,3.35-1.29,6.32
	C24.5,18.97,25.22,20.83,25.79,22.32z"/>
<path fill-rule="evenodd" clip-rule="evenodd" fill="#919191" d="M16,25.5c-0.39,0-0.765-0.042-1.114-0.124l-0.386-0.09V2.5h6V21
	C20.5,22.557,19.56,25.5,16,25.5z"/>
<circle fill-rule="evenodd" clip-rule="evenodd" fill="#3D3D3D" cx="17.5" cy="14.5" r="1.5"/>
<path fill-rule="evenodd" clip-rule="evenodd" fill="#3D3D3D" d="M25,16c0-2.88,0.7-4.69,1.26-6.14C26.66,8.84,27,7.96,27,7
	c0-3.96-3.27-5-5-5H10C8.27,2,5,3.04,5,7c0,0.96,0.34,1.84,0.74,2.86C6.3,11.31,7,13.12,7,16s-0.7,4.69-1.26,6.14
	C5.34,23.16,5,24.04,5,25c0,3.96,3.27,5,5,5h12c1.73,0,5-1.04,5-5c0-0.96-0.34-1.84-0.74-2.86C25.7,20.69,25,18.88,25,16z M15,3h5
	v18c0,0,0,4-4,4c-0.37,0-0.7-0.04-1-0.11V3z M12,3h2v21.55C12.01,23.51,12,21,12,21V3z M22,29H10c0,0-4,0-4-4
	c0-1.354,0.917-2.713,1.509-5H8.5C8.776,20,9,19.776,9,19.5S8.776,19,8.5,19H7.729c0.059-0.316,0.11-0.649,0.151-1H8.5
	C8.776,18,9,17.776,9,17.5S8.776,17,8.5,17H7.97C7.988,16.68,8,16.349,8,16h0.5C8.776,16,9,15.776,9,15.5S8.776,15,8.5,15H7.97
	C7.729,10.725,6,8.86,6,7c0-4,4-4,4-4h1v18c0,1.73,1.04,5,5,5s5-3.27,5-5V3h1c0,0,4,0,4,4c0,1.86-1.729,3.725-1.971,8H23.5
	c-0.276,0-0.5,0.224-0.5,0.5s0.224,0.5,0.5,0.5H24c0,0.349,0.012,0.68,0.029,1H23.5c-0.276,0-0.5,0.224-0.5,0.5s0.224,0.5,0.5,0.5
	h0.619c0.041,0.351,0.093,0.684,0.151,1H23.5c-0.276,0-0.5,0.224-0.5,0.5s0.224,0.5,0.5,0.5h0.991C25.083,22.287,26,23.646,26,25
	C26,29,22,29,22,29z"/>
</svg>
