<?xml version="1.0" encoding="utf-8"?>
<!-- Generator: Adobe Illustrator 16.0.0, SVG Export Plug-In . SVG Version: 6.00 Build 0)  -->
<!DOCTYPE svg PUBLIC "-//W3C//DTD SVG 1.1//EN" "http://www.w3.org/Graphics/SVG/1.1/DTD/svg11.dtd">
<svg version="1.1" id="Capa_1" xmlns="http://www.w3.org/2000/svg" xmlns:xlink="http://www.w3.org/1999/xlink" x="0px" y="0px"
	 width="32px" height="32px" viewBox="0 0 32 32" enable-background="new 0 0 32 32" xml:space="preserve">
<path fill="#3D3D3D" d="M18.302,12.295C19.244,11.683,20,10.642,20,9c0-3.375-3.158-6.573-3.293-6.707C16.512,2.098,16.256,2,16,2
	s-0.512,0.098-0.707,0.293C15.158,2.427,12,5.625,12,9c0,1.642,0.756,2.683,1.698,3.295C12.805,12.693,12,13.527,12,15
	c0,1.059,0.254,4.605,0.762,7.902C13.668,28.793,14.711,30,16,30c1.288,0,2.332-1.207,3.238-7.098C19.745,19.605,20,16.059,20,15
	C20,13.527,19.195,12.693,18.302,12.295z M13,9c0-3,3-6,3-6s3,3,3,6s-3,3-3,3S13,12,13,9z M16,29c-1.63,0-2.595-7.968-2.897-12
	h5.794C18.596,21.032,17.63,29,16,29z M18.963,16h-5.926C13.013,15.567,13,15.22,13,15c0-2,2-2,2-2h2c0,0,2,0,2,2
	C19,15.22,18.987,15.567,18.963,16z"/>
</svg>
