<?xml version="1.0" encoding="utf-8"?>
<!-- Generator: Adobe Illustrator 16.0.0, SVG Export Plug-In . SVG Version: 6.00 Build 0)  -->
<!DOCTYPE svg PUBLIC "-//W3C//DTD SVG 1.1//EN" "http://www.w3.org/Graphics/SVG/1.1/DTD/svg11.dtd">
<svg version="1.1" id="Capa_1" xmlns="http://www.w3.org/2000/svg" xmlns:xlink="http://www.w3.org/1999/xlink" x="0px" y="0px"
	 width="32px" height="32px" viewBox="0 0 32 32" enable-background="new 0 0 32 32" xml:space="preserve">
<path fill="#3D3D3D" d="M20.974,10.239C21.134,9.746,22,6.982,22,5c0-2.201-1.794-3-3-3h-6c-2.201,0-3,1.794-3,3
	c0,1.982,0.866,4.746,1.026,5.24C10.518,10.485,10,10.982,10,12c0,2,3,4,3,6s-1,6-1,8c0,4,4,4,4,4s4,0,4-4c0-2-1-6-1-8s3-4,3-6
	C22,10.982,21.482,10.485,20.974,10.239z M11,5c0,0,0-2,2-2c0.295,0,0.637,0,1,0v2.5C14,5.776,14.224,6,14.5,6S15,5.776,15,5.5V3
	c0.68,0,1.377,0,2,0v4.5C17,7.776,17.224,8,17.5,8S18,7.776,18,7.5V3c0.604,0,1,0,1,0s2,0,2,2s-1,5-1,5h-8C12,10,11,7,11,5z
	 M16.005,29C15.503,28.994,13,28.823,13,26c0-0.917,0.247-2.4,0.486-3.836C13.75,20.58,14,19.083,14,18c0-0.711-0.249-1.37-0.605-2
	h5.211C18.249,16.63,18,17.289,18,18c0,1.083,0.249,2.58,0.514,4.164C18.753,23.6,19,25.083,19,26
	C19,28.823,16.497,28.994,16.005,29z M19.7,14.4c-0.148,0.198-0.297,0.398-0.442,0.6h-6.516c-0.146-0.202-0.293-0.402-0.442-0.6
	C11.661,13.548,11,12.667,11,12c0-0.805,0.55-0.988,1-1h7.992C20.453,11.013,21,11.197,21,12C21,12.667,20.339,13.548,19.7,14.4z"/>
</svg>
