<?xml version="1.0" encoding="utf-8"?>
<!-- Generator: Adobe Illustrator 16.0.0, SVG Export Plug-In . SVG Version: 6.00 Build 0)  -->
<!DOCTYPE svg PUBLIC "-//W3C//DTD SVG 1.1//EN" "http://www.w3.org/Graphics/SVG/1.1/DTD/svg11.dtd">
<svg version="1.1" id="Capa_1" xmlns="http://www.w3.org/2000/svg" xmlns:xlink="http://www.w3.org/1999/xlink" x="0px" y="0px"
	 width="32px" height="32px" viewBox="0 0 32 32" enable-background="new 0 0 32 32" xml:space="preserve">
<path fill="#3D3D3D" d="M21.87,9.5C17.58,2,16.51,2,16,2s-1.58,0-5.87,7.5L10,9.73V28c0,1.3,1.03,2,2,2h8c0.97,0,2-0.7,2-2V9.73
	L21.87,9.5z M16,3c0.34,0,1.01,0.79,1.75,1.84c-1.14,0.19-2.36,0.19-3.51,0C14.99,3.79,15.66,3,16,3z M13.62,5.74
	C14.38,5.91,15.18,6,16,6s1.62-0.09,2.38-0.26c0.84,1.26,1.67,2.64,2.16,3.48C20.19,9.43,18.98,10,16,10
	c-2.98,0-4.19-0.57-4.54-0.78C11.95,8.38,12.78,7,13.62,5.74z M21,28c0,1-1,1-1,1v-2.5c0-0.276-0.224-0.5-0.5-0.5S19,26.224,19,26.5
	V29h-1v-5.5c0-0.276-0.224-0.5-0.5-0.5S17,23.224,17,23.5V29h-5c0,0-1,0-1-1V10.11c0.213,0.123,0.538,0.272,1,0.415V18.5
	c0,0.276,0.224,0.5,0.5,0.5s0.5-0.224,0.5-0.5v-7.74c0.759,0.139,1.73,0.24,3,0.24c3,0,4.41-0.55,5-0.89V28z"/>
</svg>
