<?xml version="1.0" encoding="utf-8"?>
<!-- Generator: Adobe Illustrator 16.0.0, SVG Export Plug-In . SVG Version: 6.00 Build 0)  -->
<!DOCTYPE svg PUBLIC "-//W3C//DTD SVG 1.1//EN" "http://www.w3.org/Graphics/SVG/1.1/DTD/svg11.dtd">
<svg version="1.1" id="Capa_1" xmlns="http://www.w3.org/2000/svg" xmlns:xlink="http://www.w3.org/1999/xlink" x="0px" y="0px"
	 width="32px" height="32px" viewBox="0 0 32 32" enable-background="new 0 0 32 32" xml:space="preserve">
<path fill="#3D3D3D" d="M27,7H5c-2.201,0-3,1.794-3,3v12c0,2.201,1.794,3,3,3h22c2.201,0,3-1.794,3-3V10C30,7.799,28.206,7,27,7z
	 M27,24c-2,0-22,0-22,0s-2,0-2-2h26C29,22,29,24,27,24z M29,21H3c0-3.198,0-11,0-11s0-2,2-2h22c0,0,2,0,2,2V21z M9,10c0,0,1,0,1,1v1
	c0,0,0,1-1,1H7c0,0-1,0-1-1s0-1,0-1s0-1,1-1H9 M9,9H7c-1.299,0-2,1.03-2,2v1c0,1.299,1.03,2,2,2h2c1.299,0,2-1.03,2-2v-1
	C11,9.701,9.97,9,9,9L9,9z M17,10c0,0,1,0,1,1v1c0,0,0,1-1,1h-2c0,0-1,0-1-1s0-1,0-1s0-1,1-1H17 M17,9h-2c-1.299,0-2,1.03-2,2v1
	c0,1.299,1.03,2,2,2h2c1.299,0,2-1.03,2-2v-1C19,9.701,17.97,9,17,9L17,9z M25,10c0,0,1,0,1,1v1c0,0,0,1-1,1h-2c0,0-1,0-1-1s0-1,0-1
	s0-1,1-1H25 M25,9h-2c-1.299,0-2,1.03-2,2v1c0,1.299,1.03,2,2,2h2c1.299,0,2-1.03,2-2v-1C27,9.701,25.97,9,25,9L25,9z M9,16
	c0,0,1,0,1,1v1c0,0,0,1-1,1H7c0,0-1,0-1-1s0-1,0-1s0-1,1-1H9 M9,15H7c-1.299,0-2,1.03-2,2v1c0,1.299,1.03,2,2,2h2
	c1.299,0,2-1.03,2-2v-1C11,15.701,9.97,15,9,15L9,15z M17,16c0,0,1,0,1,1v1c0,0,0,1-1,1h-2c0,0-1,0-1-1s0-1,0-1s0-1,1-1H17 M17,15
	h-2c-1.299,0-2,1.03-2,2v1c0,1.299,1.03,2,2,2h2c1.299,0,2-1.03,2-2v-1C19,15.701,17.97,15,17,15L17,15z M25,16c0,0,1,0,1,1v1
	c0,0,0,1-1,1h-2c0,0-1,0-1-1s0-1,0-1s0-1,1-1H25 M25,15h-2c-1.299,0-2,1.03-2,2v1c0,1.299,1.03,2,2,2h2c1.299,0,2-1.03,2-2v-1
	C27,15.701,25.97,15,25,15L25,15z"/>
</svg>
