<?xml version="1.0" encoding="utf-8"?>
<!-- Generator: Adobe Illustrator 16.0.0, SVG Export Plug-In . SVG Version: 6.00 Build 0)  -->
<!DOCTYPE svg PUBLIC "-//W3C//DTD SVG 1.1//EN" "http://www.w3.org/Graphics/SVG/1.1/DTD/svg11.dtd">
<svg version="1.1" id="Capa_1" xmlns="http://www.w3.org/2000/svg" xmlns:xlink="http://www.w3.org/1999/xlink" x="0px" y="0px"
	 width="32px" height="32px" viewBox="0 0 32 32" enable-background="new 0 0 32 32" xml:space="preserve">
<path fill="#3D3D3D" d="M19.742,8.076C17.648,2,16.541,2,16,2s-1.648,0-3.743,6.076C10.616,8.428,10,9.941,10,11v16
	c0,2.201,1.794,3,3,3h6c1.206,0,3-0.799,3-3V11C22,9.941,21.384,8.428,19.742,8.076z M19,29h-6c0,0-2,0-2-2h10C21,29,19,29,19,29z
	 M21,26H11c0-3.1,0-11.171,0-14h10C21,14.829,21,22.9,21,26z M11,11c0,0,0-2,2-2c0,0,2-6,3-6s3,6,3,6c2,0,2,2,2,2H11z"/>
</svg>
