<?xml version="1.0" encoding="utf-8"?>
<!-- Generator: Adobe Illustrator 16.0.0, SVG Export Plug-In . SVG Version: 6.00 Build 0)  -->
<!DOCTYPE svg PUBLIC "-//W3C//DTD SVG 1.1//EN" "http://www.w3.org/Graphics/SVG/1.1/DTD/svg11.dtd">
<svg version="1.1" id="Capa_1" xmlns="http://www.w3.org/2000/svg" xmlns:xlink="http://www.w3.org/1999/xlink" x="0px" y="0px"
	 width="32px" height="32px" viewBox="0 0 32 32" enable-background="new 0 0 32 32" xml:space="preserve">
<path fill="#3D3D3D" d="M21.33,7.43c-0.061-0.02-0.15-0.04-0.18-0.05C21.15,7.35,21,7.05,21,6c0-3.16-3.27-4-5-4c-1.73,0-5,0.84-5,4
	c0,1.15-0.18,1.4-0.19,1.41c0-0.01,0-0.01-0.01-0.01c-0.02,0-0.09,0.02-0.13,0.03C9.48,7.7,9,8.45,9,10c0,0.97,0.7,2,2,2v8
	c0,3.77,1.57,5.98,2.5,7.31c0.2,0.271,0.44,0.61,0.5,0.761c0.04,1.25,1.05,1.93,2,1.93s1.96-0.68,2-1.93
	c0.06-0.15,0.3-0.49,0.5-0.761C19.43,25.98,21,23.77,21,20v-8c1.3,0,2-1.03,2-2C23,8.45,22.52,7.7,21.33,7.43z M20,20c0,5-3,7-3,8
	s-1,1-1,1s-1,0-1-1s-3-3-3-8v-0.04c1.91-0.19,3.16-1.41,4.35-2.61c1.1-1.09,2.14-2.12,3.65-2.31V20z M20,14.04
	c-1.91,0.19-3.16,1.41-4.35,2.61c-1.1,1.09-2.14,2.12-3.65,2.31V12h8V14.04z M21,11H11c-1,0-1-1-1-1c0-3,2,0,2-4c0-3,4-3,4-3
	s4,0,4,3c0,4,2,1,2,4C22,10,22,11,21,11z"/>
</svg>
