<?xml version="1.0" encoding="utf-8"?>
<!-- Generator: Adobe Illustrator 16.0.0, SVG Export Plug-In . SVG Version: 6.00 Build 0)  -->
<!DOCTYPE svg PUBLIC "-//W3C//DTD SVG 1.1//EN" "http://www.w3.org/Graphics/SVG/1.1/DTD/svg11.dtd">
<svg version="1.1" id="Capa_1" xmlns="http://www.w3.org/2000/svg" xmlns:xlink="http://www.w3.org/1999/xlink" x="0px" y="0px"
	 width="32px" height="32px" viewBox="0 0 32 32" enable-background="new 0 0 32 32" xml:space="preserve">
<path fill="#3D3D3D" d="M18.995,12.9l-0.059-0.583c0.01-0.026,0.026-0.047,0.033-0.075l1-4c0.07-0.281,0.016-0.579-0.15-0.816
	l-3.5-5C16.132,2.159,15.826,2,15.5,2s-0.632,0.159-0.819,0.427l-3.5,5c-0.166,0.237-0.221,0.535-0.151,0.816l1,4
	c0.007,0.028,0.024,0.05,0.034,0.076L12.005,12.9C11.964,13.311,11,22.979,11,25.5c0,3.302,2.691,4.5,4.5,4.5
	c1.809,0,4.5-1.198,4.5-4.5C20,22.979,19.036,13.311,18.995,12.9z M18.194,15h-5.389C12.92,13.798,13,13,13,13h5
	C18,13,18.08,13.798,18.194,15z M12,8l3-4.286V8.5C15,8.776,15.224,9,15.5,9S16,8.776,16,8.5V3.714L19,8l-1,4h-5L12,8z M15.5,29
	c0,0-3.5,0-3.5-3.5c0-1.612,0.416-6.343,0.711-9.5h5.578C18.584,19.157,19,23.888,19,25.5C19,29,15.5,29,15.5,29z"/>
</svg>
