<?xml version="1.0" encoding="utf-8"?>
<!-- Generator: Adobe Illustrator 16.0.0, SVG Export Plug-In . SVG Version: 6.00 Build 0)  -->
<!DOCTYPE svg PUBLIC "-//W3C//DTD SVG 1.1//EN" "http://www.w3.org/Graphics/SVG/1.1/DTD/svg11.dtd">
<svg version="1.1" id="Capa_1" xmlns="http://www.w3.org/2000/svg" xmlns:xlink="http://www.w3.org/1999/xlink" x="0px" y="0px"
	 width="32px" height="32px" viewBox="0 0 32 32" enable-background="new 0 0 32 32" xml:space="preserve">
<path fill="#3D3D3D" d="M21,9.05V8c0.97,0,2-0.7,2-2V4c0-0.97-0.7-2-2-2H10C9.03,2,8,2.7,8,4v2c0,0.97,0.7,2,2,2v1.05
	C4.01,9.52,4,14.18,4,16c0,0.96,1.67,14,6,14h11c4.33,0,6-13.04,6-14C27,14.18,26.99,9.52,21,9.05z M20,3h1c1,0,1,1,1,1v2
	c0,1-1,1-1,1h-1V3z M16,3h3v4h-3V3z M20,8v1h-9V8H20z M12,3h3v4h-3V3z M9,6V4c0-1,1-1,1-1h1v4h-1C9,7,9,6,9,6z M21,29c-3,0-5,0-5,0
	s-3,0-6,0S5,18,5,16s0-6,6-6h9c6,0,6,4,6,6S24,29,21,29z"/>
<path fill="#3D3D3D" d="M16.15,14.24C15.96,14.08,15.73,14,15.5,14s-0.46,0.08-0.65,0.24C14.69,14.38,11,17.58,11,21
	c0,3.16,2.94,4,4.5,4c1.56,0,4.5-0.84,4.5-4C20,17.58,16.31,14.38,16.15,14.24z M15.5,24c0,0-3.5,0-3.5-3s3.5-6,3.5-6s3.5,3,3.5,6
	S15.5,24,15.5,24z"/>
</svg>
