<?xml version="1.0" encoding="utf-8"?>
<!-- Generator: Adobe Illustrator 16.0.0, SVG Export Plug-In . SVG Version: 6.00 Build 0)  -->
<!DOCTYPE svg PUBLIC "-//W3C//DTD SVG 1.1//EN" "http://www.w3.org/Graphics/SVG/1.1/DTD/svg11.dtd">
<svg version="1.1" id="Capa_1" xmlns="http://www.w3.org/2000/svg" xmlns:xlink="http://www.w3.org/1999/xlink" x="0px" y="0px"
	 width="32px" height="32px" viewBox="0 0 32 32" enable-background="new 0 0 32 32" xml:space="preserve">
<path fill="#3D3D3D" d="M21.83,11.45L20,8.7V7c0-0.55-0.45-1-1-1h-1V4c0-0.38-0.21-0.73-0.55-0.89l-2-1C15.31,2.04,15.15,2,15,2
	c-0.18,0-0.37,0.05-0.53,0.15C14.18,2.33,14,2.65,14,3v3h-1c-0.55,0-1,0.45-1,1v1.7l-1.83,2.75C10.06,11.61,10,11.81,10,12v16
	c0,1.3,1.03,2,2,2h8c1.3,0,2-1.03,2-2V12C22,11.81,21.94,11.61,21.83,11.45z M15,3l2,1v2h-2V3z M21,28c0,0,0,1-1,1h-8c0,0-1,0-1-1
	v-1h10V28z M21,26H11V13h10V26z M11,12l2-3V7h6v2l2,3H11z"/>
</svg>
