<?xml version="1.0" encoding="utf-8"?>
<!-- Generator: Adobe Illustrator 16.0.0, SVG Export Plug-In . SVG Version: 6.00 Build 0)  -->
<!DOCTYPE svg PUBLIC "-//W3C//DTD SVG 1.1//EN" "http://www.w3.org/Graphics/SVG/1.1/DTD/svg11.dtd">
<svg version="1.1" id="Capa_1" xmlns="http://www.w3.org/2000/svg" xmlns:xlink="http://www.w3.org/1999/xlink" x="0px" y="0px"
	 width="32px" height="32px" viewBox="0 0 32 32" enable-background="new 0 0 32 32" xml:space="preserve">
<path fill="#3D3D3D" d="M21.998,26.944l-1-18C20.978,8.661,20.783,7.43,19,7.09V5.742C19.65,5.378,20,4.678,20,4c0-1.299-1.03-2-2-2
	h-4c-1.299,0-2,1.03-2,2c0,0.84,0.433,1.426,1,1.738V7.09c-1.783,0.34-1.978,1.571-1.998,1.854h-0.001l-1,18L10,26.973V27
	c0,1.206,0.799,3,3,3h3h3c2.201,0,3-1.794,3-3v-0.027L21.998,26.944z M14,3h4c0,0,1,0,1,1c0,0,0,1-1,1s-4,0-4,0s-1,0-1-1
	C13,4,13,3,14,3z M14,6h4v1h-4V6z M14,8h4c2,0,2,1,2,1l0.5,9h-9L12,9C12,9,12,8,14,8z M11.444,19h9.111L21,27H11L11.444,19z M19,29
	c-2,0-3,0-3,0s-1,0-3,0c-1,0-1.5-0.5-1.75-1h9.5C20.5,28.5,20,29,19,29z"/>
</svg>
