<?xml version="1.0" encoding="utf-8"?>
<!-- Generator: Adobe Illustrator 16.0.0, SVG Export Plug-In . SVG Version: 6.00 Build 0)  -->
<!DOCTYPE svg PUBLIC "-//W3C//DTD SVG 1.1//EN" "http://www.w3.org/Graphics/SVG/1.1/DTD/svg11.dtd">
<svg version="1.1" id="Capa_1" xmlns="http://www.w3.org/2000/svg" xmlns:xlink="http://www.w3.org/1999/xlink" x="0px" y="0px"
	 width="32px" height="32px" viewBox="0 0 32 32" enable-background="new 0 0 32 32" xml:space="preserve">
<path fill="#3D3D3D" d="M25,2H7C5.7,2,5,3.03,5,4v4h1v19c0,2.2,1.79,3,3,3h14c1.21,0,3-0.8,3-3V8h1V4C27,2.7,25.97,2,25,2z M25,27
	c0,2-2,2-2,2H9c0,0-2,0-2-2V13.99c1.26-0.05,1.97-0.29,2.66-0.52C10.39,13.23,11.08,13,12.5,13c1.35,0,1.99,0.42,2.72,0.92
	c0.76,0.5,1.63,1.08,3.28,1.08c1.53,0,2.37-0.49,3.19-0.96c0.81-0.47,1.649-0.94,3.31-1.02V27z M25,12.02
	c-1.93,0.08-2.93,0.65-3.81,1.15C20.42,13.62,19.76,14,18.5,14c-1.35,0-1.99-0.42-2.72-0.92C15.02,12.58,14.15,12,12.5,12
	c-1.58,0-2.38,0.27-3.16,0.53C8.7,12.74,8.09,12.94,7,12.99V8h18V12.02z M26,7H6V4c0,0,0-1,1-1h18c0,0,1,0,1,1V7z"/>
</svg>
