<?xml version="1.0" encoding="utf-8"?>
<!-- Generator: Adobe Illustrator 16.0.0, SVG Export Plug-In . SVG Version: 6.00 Build 0)  -->
<!DOCTYPE svg PUBLIC "-//W3C//DTD SVG 1.1//EN" "http://www.w3.org/Graphics/SVG/1.1/DTD/svg11.dtd">
<svg version="1.1" id="Capa_1" xmlns="http://www.w3.org/2000/svg" xmlns:xlink="http://www.w3.org/1999/xlink" x="0px" y="0px"
	 width="32px" height="32px" viewBox="0 0 32 32" enable-background="new 0 0 32 32" xml:space="preserve">
<path fill="#3D3D3D" d="M19,2h-6h-1v1v26v1h1h6h1v-1V3V2H19z M19,29h-6v-1h1.5c0.276,0,0.5-0.224,0.5-0.5S14.776,27,14.5,27H13v-1
	h0.5c0.276,0,0.5-0.224,0.5-0.5S13.776,25,13.5,25H13v-1h0.5c0.276,0,0.5-0.224,0.5-0.5S13.776,23,13.5,23H13v-1h1.5
	c0.276,0,0.5-0.224,0.5-0.5S14.776,21,14.5,21H13v-1h0.5c0.276,0,0.5-0.224,0.5-0.5S13.776,19,13.5,19H13v-1h0.5
	c0.276,0,0.5-0.224,0.5-0.5S13.776,17,13.5,17H13v-1h1.5c0.276,0,0.5-0.224,0.5-0.5S14.776,15,14.5,15H13v-1h0.5
	c0.276,0,0.5-0.224,0.5-0.5S13.776,13,13.5,13H13v-1h0.5c0.276,0,0.5-0.224,0.5-0.5S13.776,11,13.5,11H13v-1h1.5
	c0.276,0,0.5-0.224,0.5-0.5S14.776,9,14.5,9H13V8h0.5C13.776,8,14,7.776,14,7.5S13.776,7,13.5,7H13V6h0.5C13.776,6,14,5.776,14,5.5
	S13.776,5,13.5,5H13V3h6V29z"/>
</svg>
