<?xml version="1.0" encoding="utf-8"?>
<!-- Generator: Adobe Illustrator 16.0.0, SVG Export Plug-In . SVG Version: 6.00 Build 0)  -->
<!DOCTYPE svg PUBLIC "-//W3C//DTD SVG 1.1//EN" "http://www.w3.org/Graphics/SVG/1.1/DTD/svg11.dtd">
<svg version="1.1" id="Capa_1" xmlns="http://www.w3.org/2000/svg" xmlns:xlink="http://www.w3.org/1999/xlink" x="0px" y="0px"
	 width="32px" height="32px" viewBox="0 0 32 32" enable-background="new 0 0 32 32" xml:space="preserve">
<path fill="#FFE164" d="M26.5,22.5l3,3h-17c4.1,0,7.62-2.47,9.16-6h7.84L26.5,22.5z"/>
<path fill="#FFE578" d="M12.5,5.5c-5.52,0-10,4.48-10,10c0,5.52,4.48,10,10,10c4.1,0,7.62-2.47,9.16-6c0.54-1.22,0.84-2.58,0.84-4
	C22.5,9.98,18.02,5.5,12.5,5.5z M7.5,15.5c0-2.76,2.24-5,5-5s5,2.24,5,5s-2.24,5-5,5S7.5,18.26,7.5,15.5z"/>
<g opacity="0.2">
	<path fill="#3D3D3D" d="M12.5,24c-0.276,0-0.5-0.224-0.5-0.5s0.224-0.5,0.5-0.5c4.136,0,7.5-3.364,7.5-7.5
		c0-0.276,0.224-0.5,0.5-0.5s0.5,0.224,0.5,0.5C21,20.187,17.187,24,12.5,24z"/>
</g>
<g opacity="0.2">
	<path fill="#3D3D3D" d="M4.5,16C4.224,16,4,15.776,4,15.5C4,10.813,7.813,7,12.5,7C12.776,7,13,7.224,13,7.5S12.776,8,12.5,8
		C8.364,8,5,11.364,5,15.5C5,15.776,4.776,16,4.5,16z"/>
</g>
<g>
	<path fill="#3D3D3D" d="M12.5,21C9.467,21,7,18.532,7,15.5c0-3.033,2.467-5.5,5.5-5.5s5.5,2.467,5.5,5.5
		C18,18.532,15.533,21,12.5,21z M12.5,11C10.019,11,8,13.019,8,15.5s2.019,4.5,4.5,4.5s4.5-2.019,4.5-4.5S14.981,11,12.5,11z"/>
</g>
<path fill="#3D3D3D" d="M27.207,22.5l2.646-2.646c0.143-0.143,0.186-0.358,0.108-0.545S29.702,19,29.5,19h-7.112
	C22.777,17.903,23,16.729,23,15.5C23,9.71,18.29,5,12.5,5C6.71,5,2,9.71,2,15.5C2,21.29,6.71,26,12.5,26h17
	c0.202,0,0.385-0.122,0.462-0.309s0.034-0.402-0.108-0.545L27.207,22.5z M3,15.5C3,10.262,7.262,6,12.5,6s9.5,4.262,9.5,9.5
	S17.738,25,12.5,25S3,20.738,3,15.5z M16.943,25c2.203-1.035,3.985-2.809,5.031-5.005C21.983,19.995,21.991,20,22,20h6.293
	l-2.146,2.146c-0.195,0.195-0.195,0.512,0,0.707L28.293,25H16.943z"/>
</svg>
