<?xml version="1.0" encoding="utf-8"?>
<!-- Generator: Adobe Illustrator 16.0.0, SVG Export Plug-In . SVG Version: 6.00 Build 0)  -->
<!DOCTYPE svg PUBLIC "-//W3C//DTD SVG 1.1//EN" "http://www.w3.org/Graphics/SVG/1.1/DTD/svg11.dtd">
<svg version="1.1" id="Capa_1" xmlns="http://www.w3.org/2000/svg" xmlns:xlink="http://www.w3.org/1999/xlink" x="0px" y="0px"
	 width="32px" height="32px" viewBox="0 0 32 32" enable-background="new 0 0 32 32" xml:space="preserve">
<path fill="#B2B2B2" d="M21.5,12c0,0.83-0.71,1.78-1.4,2.7c-0.199,0.27-0.399,0.53-0.59,0.8h-7.02c-0.19-0.27-0.39-0.53-0.59-0.8
	c-0.69-0.92-1.4-1.87-1.4-2.7c0-0.64,0.24-1.07,0.74-1.31l0.38-0.19h8.83l0.31,0.19C21.26,10.93,21.5,11.36,21.5,12z"/>
<path fill="#AA693D" d="M19.01,22.08c0.24,1.46,0.49,2.96,0.49,3.92c0,3.43-3.34,3.5-3.5,3.5s-3.5-0.07-3.5-3.5
	c0-0.96,0.25-2.46,0.49-3.92c0.25-1.49,0.51-3.04,0.51-4.08c0-0.87-0.45-1.7-1.01-2.5h7.02c-0.56,0.8-1.01,1.63-1.01,2.5
	C18.5,19.04,18.76,20.59,19.01,22.08z"/>
<path fill="#B57B54" d="M20.52,10.05l-0.13,0.41l0.061,0.04h-8.83l-0.12-0.41C10.85,8,10.5,6.2,10.5,5c0-0.86,0.52-2.5,2.5-2.5h6
	c0.86,0,2.5,0.52,2.5,2.5C21.5,5.84,21.33,7.4,20.52,10.05z"/>
<path fill="#3D3D3D" d="M20.974,10.239C21.134,9.746,22,6.982,22,5c0-2.201-1.794-3-3-3h-6c-2.201,0-3,1.794-3,3
	c0,1.982,0.866,4.746,1.026,5.24C10.518,10.485,10,10.982,10,12c0,2,3,4,3,6s-1,6-1,8c0,4,4,4,4,4s4,0,4-4c0-2-1-6-1-8s3-4,3-6
	C22,10.982,21.482,10.485,20.974,10.239z M11,5c0,0,0-2,2-2c0.295,0,0.637,0,1,0v2.5C14,5.776,14.224,6,14.5,6S15,5.776,15,5.5V3
	c0.68,0,1.377,0,2,0v4.5C17,7.776,17.224,8,17.5,8S18,7.776,18,7.5V3c0.604,0,1,0,1,0s2,0,2,2s-1,5-1,5h-8C12,10,11,7,11,5z
	 M16.005,29C15.503,28.994,13,28.823,13,26c0-0.917,0.247-2.4,0.486-3.836C13.75,20.58,14,19.083,14,18c0-0.711-0.249-1.37-0.605-2
	h5.211C18.249,16.63,18,17.289,18,18c0,1.083,0.249,2.58,0.514,4.164C18.753,23.6,19,25.083,19,26
	C19,28.823,16.497,28.994,16.005,29z M19.7,14.4c-0.148,0.198-0.297,0.398-0.442,0.6h-6.516c-0.146-0.202-0.293-0.402-0.442-0.6
	C11.661,13.548,11,12.667,11,12c0-0.805,0.55-0.988,1-1h7.992C20.453,11.013,21,11.197,21,12C21,12.667,20.339,13.548,19.7,14.4z"/>
</svg>
