<?xml version="1.0" encoding="utf-8"?>
<!-- Generator: Adobe Illustrator 16.0.0, SVG Export Plug-In . SVG Version: 6.00 Build 0)  -->
<!DOCTYPE svg PUBLIC "-//W3C//DTD SVG 1.1//EN" "http://www.w3.org/Graphics/SVG/1.1/DTD/svg11.dtd">
<svg version="1.1" id="Capa_1" xmlns="http://www.w3.org/2000/svg" xmlns:xlink="http://www.w3.org/1999/xlink" x="0px" y="0px"
	 width="32px" height="32px" viewBox="0 0 32 32" enable-background="new 0 0 32 32" xml:space="preserve">
<path fill="#AA693D" d="M11.42,22.5l-0.22,0.66l-1.77,5.32C9.22,29.09,8.65,29.5,8,29.5c-0.13,0-0.29-0.02-0.45-0.07l-0.04-0.01
	c-0.79-0.28-1.19-1.1-0.93-1.91l1.66-5.01H11.42z"/>
<path fill="#AA693D" d="M17.5,22.5V28c0,0.83-0.67,1.5-1.5,1.5s-1.5-0.67-1.5-1.5v-5.5H17.5z"/>
<path fill="#AA693D" d="M24.49,29.42l-0.07,0.021c-0.18,0.04-0.31,0.06-0.42,0.06c-0.65,0-1.22-0.41-1.43-1.02L20.8,23.16
	l-0.22-0.66h3.18l1.67,5.04C25.68,28.32,25.27,29.15,24.49,29.42z"/>
<path fill="#B57B54" d="M14.5,4.5V4c0-1.101,0.897-1.5,1.5-1.5s1.5,0.399,1.5,1.5v0.5H14.5z"/>
<path fill="#FFFFFF" d="M10,19.5c-1.412,0-1.497-1.252-1.5-1.503V6C8.503,5.752,8.588,4.5,10,4.5h12c0.248,0.003,1.5,0.088,1.5,1.5
	v12c0,1.41-1.249,1.497-1.502,1.5H10z"/>
<path fill="#B57B54" d="M26.5,21c0,1.1-0.9,1.5-1.5,1.5H7c-1.1,0-1.5-0.9-1.5-1.5c0-1.1,0.9-1.5,1.5-1.5h18
	C26.1,19.5,26.5,20.4,26.5,21z"/>
<path fill="#3D3D3D" d="M27,21c0-0.97-0.701-2-2-2h-1.241C23.898,18.737,24,18.421,24,18c0-2,0-5,0-5s0-5,0-7s-2-2-2-2h-4
	c0-1.299-1.03-2-2-2s-2,0.701-2,2h-4C8,4,8,6,8,6v12c0,0,0,0.5,0.25,1H7c-0.97,0-2,0.701-2,2c0,0.97,0.701,2,2,2h0.556l-1.455,4.363
	c-0.341,1.063,0.21,2.17,1.251,2.531l0.031,0.011l0.032,0.009C7.621,29.971,7.818,30,8,30c0.864,0,1.626-0.548,1.899-1.363
	l1.77-5.321L11.774,23H14v5c0,1.103,0.897,2,2,2c1.103,0,2-0.897,2-2v-5h2.227l0.104,0.315l1.77,5.32C22.374,29.452,23.138,30,24,30
	c0.182,0,0.378-0.028,0.585-0.085l0.032-0.01l0.031-0.011c1.04-0.361,1.591-1.469,1.254-2.52L24.443,23H25C25.97,23,27,22.299,27,21
	z M16,3c0,0,1,0,1,1h-2C15,3,16,3,16,3z M9,18V6.012C9.012,5.55,9.195,5,10,5h11.992C22.453,5.013,23,5.197,23,6v7v5
	c0,0.806-0.55,0.988-1,1H10C9.195,19,9.012,18.45,9,18z M8.95,28.32C8.81,28.74,8.42,29,8,29c-0.1,0-0.21-0.02-0.32-0.05
	c-0.52-0.181-0.8-0.74-0.63-1.271L8.61,23h2.11L8.95,28.32z M17,28c0,0.55-0.45,1-1,1s-1-0.45-1-1v-5h2V28z M7,22c-1,0-1-1-1-1
	c0-1,1-1,1-1h18c1,0,1,1,1,1c0,1-1,1-1,1H7z M24.95,27.68c0.17,0.53-0.11,1.09-0.63,1.271C24.21,28.98,24.1,29,24,29
	c-0.42,0-0.81-0.26-0.95-0.68L21.28,23h2.109L24.95,27.68z"/>
</svg>
