<?xml version="1.0" encoding="utf-8"?>
<!-- Generator: Adobe Illustrator 16.0.0, SVG Export Plug-In . SVG Version: 6.00 Build 0)  -->
<!DOCTYPE svg PUBLIC "-//W3C//DTD SVG 1.1//EN" "http://www.w3.org/Graphics/SVG/1.1/DTD/svg11.dtd">
<svg version="1.1" id="Capa_1" xmlns="http://www.w3.org/2000/svg" xmlns:xlink="http://www.w3.org/1999/xlink" x="0px" y="0px"
	 width="32px" height="32px" viewBox="0 0 32 32" enable-background="new 0 0 32 32" xml:space="preserve">
<path fill="#F4B184" d="M23.51,16l-1.75,11.37c-0.2,1.24-1.24,2.13-2.479,2.13H9.33c-0.74,0-1.43-0.32-1.9-0.87
	c-0.47-0.55-0.67-1.28-0.57-2.01L8.49,16H23.51z"/>
<path fill="#F4B184" d="M25.14,5.38L23.51,16H8.49l1.75-11.37c0.2-1.24,1.24-2.13,2.48-2.13h9.95c0.74,0,1.43,0.32,1.9,0.87
	C25.04,3.92,25.24,4.65,25.14,5.38z"/>
<path opacity="0.4" fill="#B57B54" d="M23.51,16l-1.75,11.37c-0.2,1.24-1.24,2.13-2.479,2.13H9.33c-0.74,0-1.43-0.32-1.9-0.87
	c-0.47-0.55-0.67-1.28-0.57-2.01L8.49,16H23.51z"/>
<path fill="#3D3D3D" d="M24.945,3.047C24.375,2.381,23.545,2,22.669,2h-9.953c-1.492,0-2.738,1.07-2.965,2.544l-3.385,22
	c-0.133,0.865,0.117,1.744,0.688,2.409C7.625,29.619,8.455,30,9.331,30h9.953c1.491,0,2.738-1.07,2.965-2.544l3.385-22
	C25.768,4.59,25.517,3.712,24.945,3.047z M21.261,27.304C21.11,28.28,20.271,29,19.284,29H9.331c-0.583,0-1.138-0.255-1.518-0.697
	c-0.38-0.443-0.547-1.03-0.458-1.606L8.846,17h14L21.261,27.304z M24.646,5.304L23,16H9l1.739-11.304C10.889,3.72,11.729,3,12.716,3
	h9.953c0.584,0,1.138,0.255,1.518,0.698S24.734,4.728,24.646,5.304z"/>
</svg>
