<?xml version="1.0" encoding="utf-8"?>
<!-- Generator: Adobe Illustrator 16.0.0, SVG Export Plug-In . SVG Version: 6.00 Build 0)  -->
<!DOCTYPE svg PUBLIC "-//W3C//DTD SVG 1.1//EN" "http://www.w3.org/Graphics/SVG/1.1/DTD/svg11.dtd">
<svg version="1.1" id="Capa_1" xmlns="http://www.w3.org/2000/svg" xmlns:xlink="http://www.w3.org/1999/xlink" x="0px" y="0px"
	 width="32px" height="32px" viewBox="0 0 32 32" enable-background="new 0 0 32 32" xml:space="preserve">
<path fill="#B2B2B2" d="M19.48,8.12l-1,4l-0.03,0.1l-0.01,0.15l0.01,0.13h-5.91l0.03-0.24l-0.04-0.1l-1.02-4.04
	c-0.03-0.14-0.01-0.29,0.07-0.39l3.51-5.01c0.1-0.14,0.25-0.22,0.41-0.22s0.31,0.08,0.41,0.22L16,2.85l3.41,4.87
	C19.5,7.83,19.52,7.98,19.48,8.12z"/>
<path opacity="0.3" fill="#FFFFFF" d="M19.48,8.12l-1,4l-0.03,0.1l-0.01,0.15l0.01,0.13H16V2.85l3.41,4.87
	C19.5,7.83,19.52,7.98,19.48,8.12z"/>
<path fill="#919191" d="M18.74,15.5h-6.49c0.08-0.84,0.16-1.67,0.24-2.48l0.05-0.52h5.91l0.05,0.45
	C18.58,13.78,18.66,14.64,18.74,15.5z"/>
<path fill="#949EFF" d="M19.5,25.5c0,2.93-2.39,4-4,4c-1.61,0-4-1.07-4-4c0-1.48,0.35-5.79,0.75-10h6.49
	C19.15,19.74,19.5,24.02,19.5,25.5z"/>
<path fill="#3D3D3D" d="M18.995,12.9l-0.059-0.583c0.01-0.026,0.026-0.047,0.033-0.075l1-4c0.07-0.281,0.016-0.579-0.15-0.816
	l-3.5-5C16.132,2.159,15.826,2,15.5,2s-0.632,0.159-0.819,0.427l-3.5,5c-0.166,0.237-0.221,0.535-0.151,0.816l1,4
	c0.007,0.028,0.024,0.05,0.034,0.076L12.005,12.9C11.964,13.311,11,22.979,11,25.5c0,3.302,2.691,4.5,4.5,4.5
	c1.809,0,4.5-1.198,4.5-4.5C20,22.979,19.036,13.311,18.995,12.9z M18.194,15h-5.389C12.92,13.798,13,13,13,13h5
	C18,13,18.08,13.798,18.194,15z M12,8l3-4.286V8.5C15,8.776,15.224,9,15.5,9S16,8.776,16,8.5V3.714L19,8l-1,4h-5L12,8z M15.5,29
	c0,0-3.5,0-3.5-3.5c0-1.612,0.416-6.343,0.711-9.5h5.578C18.584,19.157,19,23.888,19,25.5C19,29,15.5,29,15.5,29z"/>
</svg>
