<?xml version="1.0" encoding="utf-8"?>
<!-- Generator: Adobe Illustrator 16.0.0, SVG Export Plug-In . SVG Version: 6.00 Build 0)  -->
<!DOCTYPE svg PUBLIC "-//W3C//DTD SVG 1.1//EN" "http://www.w3.org/Graphics/SVG/1.1/DTD/svg11.dtd">
<svg version="1.1" id="Capa_1" xmlns="http://www.w3.org/2000/svg" xmlns:xlink="http://www.w3.org/1999/xlink" x="0px" y="0px"
	 width="32px" height="32px" viewBox="0 0 32 32" enable-background="new 0 0 32 32" xml:space="preserve">
<path fill="#686868" d="M26.5,16c0,1.5-1.84,13.5-5.5,13.5H10c-3.66,0-5.5-12-5.5-13.5c0-1.81,0-6.04,5.54-6.46L10.5,9.5h10
	l0.46,0.04C26.5,9.96,26.5,14.19,26.5,16z"/>
<rect x="10.5" y="7.5" fill="#919191" width="10" height="2"/>
<path fill="#686868" d="M22.5,4v2c0,1.1-0.9,1.5-1.5,1.5H10C8.9,7.5,8.5,6.6,8.5,6V4c0-1.1,0.9-1.5,1.5-1.5h11
	C22.1,2.5,22.5,3.4,22.5,4z"/>
<path fill="#3D3D3D" d="M21,9.047V8c0.97,0,2-0.701,2-2V4c0-0.97-0.701-2-2-2H10C9.03,2,8,2.701,8,4v2c0,0.97,0.701,2,2,2v1.047
	C4.012,9.516,4,14.183,4,16c0,0.956,1.67,14,6,14h6h5c4.33,0,6-13.044,6-14C27,14.183,26.988,9.516,21,9.047z M21,3c1,0,1,1,1,1v2
	c0,1-1,1-1,1h-1V3H21z M19,3v4h-3V3H19z M20,8v1h-9V8H20z M15,3v4h-3V3H15z M9,6V4c0-1,1-1,1-1h1v4h-1C9,7,9,6,9,6z M21,29
	c-3,0-5,0-5,0s-3,0-6,0S5,18,5,16s0-6,6-6h9c6,0,6,4,6,6S24,29,21,29z"/>
<g>
	<path fill="#919191" d="M15.5,24.5c-1.383,0-4-0.731-4-3.5c0-3.193,3.524-6.251,3.675-6.379l0.325-0.279l0.325,0.279
		C15.976,14.749,19.5,17.807,19.5,21C19.5,23.769,16.883,24.5,15.5,24.5z"/>
</g>
<path fill="#3D3D3D" d="M15.5,15c0,0,3.5,3,3.5,6s-3.5,3-3.5,3S12,24,12,21S15.5,15,15.5,15 M15.5,14
	c-0.232,0-0.463,0.08-0.651,0.241C14.692,14.375,11,17.579,11,21c0,3.164,2.943,4,4.5,4s4.5-0.836,4.5-4
	c0-3.421-3.692-6.625-3.849-6.759C15.963,14.08,15.732,14,15.5,14L15.5,14z"/>
</svg>
