<?xml version="1.0" encoding="utf-8"?>
<!-- Generator: Adobe Illustrator 16.0.0, SVG Export Plug-In . SVG Version: 6.00 Build 0)  -->
<!DOCTYPE svg PUBLIC "-//W3C//DTD SVG 1.1//EN" "http://www.w3.org/Graphics/SVG/1.1/DTD/svg11.dtd">
<svg version="1.1" id="Capa_1" xmlns="http://www.w3.org/2000/svg" xmlns:xlink="http://www.w3.org/1999/xlink" x="0px" y="0px"
	 width="32px" height="32px" viewBox="0 0 32 32" enable-background="new 0 0 32 32" xml:space="preserve">
<path fill="#B2B2B2" d="M21.5,5c0,1.48-1.56,7.23-3.01,12.13l-0.07,0.2c-0.02,0.06-0.02,0.12-0.02,0.17h-4.8
	c0-0.05-0.01-0.12-0.02-0.17l-0.06-0.19C12.06,12.25,10.5,6.49,10.5,5c0-1.98,1.64-2.5,2.5-2.5h6C19.86,2.5,21.5,3.02,21.5,5z"/>
<path opacity="0.3" fill="#FFFFFF" d="M21.5,5c0,1.48-1.56,7.23-3.01,12.13l-0.07,0.2c-0.02,0.06-0.02,0.12-0.02,0.17H16v-15h3
	C19.86,2.5,21.5,3.02,21.5,5z"/>
<path fill="#B57B54" d="M19.5,26c0,2.57-2.09,3.5-3.5,3.5s-3.5-0.93-3.5-3.5c0-3.7,0.84-7.39,1.01-8.09l0.07-0.28
	c0.01-0.04,0.02-0.09,0.02-0.13h4.8c0.01,0.07,0.02,0.14,0.05,0.2l0.03,0.17C18.66,18.6,19.5,22.29,19.5,26z"/>
<path fill="#3D3D3D" d="M18.9,17.479l0.058-0.192C19.27,16.25,22,7.086,22,5c0-2.201-1.794-3-3-3h-6c-1.206,0-3,0.799-3,3
	c0,2.086,2.731,11.25,3.042,12.287l0.058,0.191l-0.07,0.279C12.988,17.926,12,21.924,12,26c0,2.935,2.392,4,4,4c1.607,0,4-1.065,4-4
	c0-4.076-0.988-8.074-1.03-8.242L18.9,17.479z M11,5c0-2,2-2,2-2h6c0,0,2,0,2,2s-3,12-3,12h-4C14,17,11,7,11,5z M16,29c0,0-3,0-3-3
	c0-4,1-8,1-8h4c0,0,1,4,1,8C19,29,16,29,16,29z"/>
</svg>
